MTrk
0 Meta TrkName "DSK AkoustiK GuitarZ"
0 Tempo 923076
0 On ch=1 n=77 v=64
64 On ch=1 n=91 v=64
64 On ch=1 n=87 v=64
64 On ch=1 n=80 v=64
64 On ch=1 n=84 v=64
96 Off ch=1 n=84 v=64
96 Off ch=1 n=80 v=64
96 Off ch=1 n=87 v=64
96 Off ch=1 n=91 v=64
96 Off ch=1 n=77 v=64
128 On ch=1 n=77 v=64
160 On ch=1 n=91 v=64
160 On ch=1 n=87 v=64
160 On ch=1 n=80 v=64
160 On ch=1 n=84 v=64
192 Off ch=1 n=77 v=64
224 On ch=1 n=70 v=64
256 Off ch=1 n=87 v=64
256 Off ch=1 n=80 v=64
256 Off ch=1 n=91 v=64
256 Off ch=1 n=70 v=64
256 Off ch=1 n=84 v=64
288 On ch=1 n=70 v=64
320 Off ch=1 n=70 v=64
320 On ch=1 n=86 v=64
320 On ch=1 n=80 v=64
320 On ch=1 n=77 v=64
384 On ch=1 n=70 v=64
416 Off ch=1 n=77 v=64
416 Off ch=1 n=80 v=64
416 Off ch=1 n=86 v=64
416 On ch=1 n=86 v=64
416 On ch=1 n=80 v=64
416 On ch=1 n=77 v=64
480 Off ch=1 n=70 v=64
512 Off ch=1 n=86 v=64
512 Off ch=1 n=80 v=64
512 Off ch=1 n=77 v=64
512 On ch=1 n=75 v=64
576 On ch=1 n=86 v=64
576 On ch=1 n=89 v=64
576 On ch=1 n=79 v=64
576 On ch=1 n=82 v=64
608 Off ch=1 n=79 v=64
608 Off ch=1 n=82 v=64
608 Off ch=1 n=89 v=64
608 Off ch=1 n=75 v=64
608 Off ch=1 n=86 v=64
640 On ch=1 n=75 v=64
672 On ch=1 n=89 v=64
672 On ch=1 n=86 v=64
672 On ch=1 n=82 v=64
672 On ch=1 n=79 v=64
704 Off ch=1 n=75 v=64
736 On ch=1 n=68 v=64
768 Off ch=1 n=82 v=64
768 Off ch=1 n=68 v=64
768 Off ch=1 n=79 v=64
768 Off ch=1 n=86 v=64
768 Off ch=1 n=89 v=64
800 On ch=1 n=68 v=64
832 Off ch=1 n=68 v=64
832 On ch=1 n=87 v=64
832 On ch=1 n=82 v=64
832 On ch=1 n=79 v=64
832 On ch=1 n=75 v=64
896 Off ch=1 n=87 v=64
896 On ch=1 n=91 v=64
896 On ch=1 n=89 v=64
896 On ch=1 n=68 v=64
928 Off ch=1 n=75 v=64
928 Off ch=1 n=79 v=64
928 Off ch=1 n=82 v=64
928 On ch=1 n=75 v=64
928 On ch=1 n=79 v=64
928 On ch=1 n=82 v=64
960 Off ch=1 n=89 v=64
960 Off ch=1 n=91 v=64
960 On ch=1 n=86 v=64
992 Off ch=1 n=68 v=64
1024 Off ch=1 n=82 v=64
1024 Off ch=1 n=86 v=64
1024 Off ch=1 n=75 v=64
1024 Off ch=1 n=79 v=64
1024 On ch=1 n=77 v=64
1088 On ch=1 n=91 v=64
1088 On ch=1 n=80 v=64
1088 On ch=1 n=84 v=64
1088 On ch=1 n=87 v=64
1120 Off ch=1 n=77 v=64
1120 Off ch=1 n=84 v=64
1120 Off ch=1 n=80 v=64
1120 Off ch=1 n=91 v=64
1120 Off ch=1 n=87 v=64
1152 On ch=1 n=77 v=64
1184 On ch=1 n=84 v=64
1184 On ch=1 n=80 v=64
1184 On ch=1 n=87 v=64
1184 On ch=1 n=91 v=64
1216 Off ch=1 n=77 v=64
1248 On ch=1 n=70 v=64
1280 Off ch=1 n=91 v=64
1280 Off ch=1 n=87 v=64
1280 Off ch=1 n=84 v=64
1280 Off ch=1 n=80 v=64
1280 Off ch=1 n=70 v=64
1312 On ch=1 n=70 v=64
1344 Off ch=1 n=70 v=64
1344 On ch=1 n=77 v=64
1344 On ch=1 n=80 v=64
1344 On ch=1 n=86 v=64
1408 On ch=1 n=70 v=64
1440 Off ch=1 n=77 v=64
1440 Off ch=1 n=86 v=64
1440 Off ch=1 n=80 v=64
1440 On ch=1 n=86 v=64
1440 On ch=1 n=80 v=64
1440 On ch=1 n=77 v=64
1504 Off ch=1 n=70 v=64
1536 Off ch=1 n=80 v=64
1536 Off ch=1 n=77 v=64
1536 Off ch=1 n=86 v=64
1536 On ch=1 n=75 v=64
1600 On ch=1 n=79 v=64
1600 On ch=1 n=86 v=64
1600 On ch=1 n=82 v=64
1600 On ch=1 n=89 v=64
1632 Off ch=1 n=86 v=64
1632 Off ch=1 n=89 v=64
1632 Off ch=1 n=79 v=64
1632 Off ch=1 n=82 v=64
1632 Off ch=1 n=75 v=64
1664 On ch=1 n=75 v=64
1696 On ch=1 n=79 v=64
1696 On ch=1 n=82 v=64
1696 On ch=1 n=86 v=64
1696 On ch=1 n=89 v=64
1728 Off ch=1 n=75 v=64
1760 On ch=1 n=68 v=64
1792 Off ch=1 n=89 v=64
1792 Off ch=1 n=86 v=64
1792 Off ch=1 n=82 v=64
1792 Off ch=1 n=79 v=64
1792 Off ch=1 n=68 v=64
1792 On ch=1 n=96 v=64
1824 On ch=1 n=68 v=64
1856 Off ch=1 n=68 v=64
1856 On ch=1 n=87 v=64
1856 On ch=1 n=79 v=64
1856 On ch=1 n=75 v=64
1856 On ch=1 n=82 v=64
1888 Off ch=1 n=96 v=64
1888 On ch=1 n=94 v=64
1920 Off ch=1 n=94 v=64
1920 On ch=1 n=68 v=64
1952 Off ch=1 n=75 v=64
1952 Off ch=1 n=79 v=64
1952 Off ch=1 n=87 v=64
1952 Off ch=1 n=82 v=64
1952 On ch=1 n=75 v=64
1952 On ch=1 n=92 v=64
1952 On ch=1 n=87 v=64
1952 On ch=1 n=79 v=64
1952 On ch=1 n=82 v=64
1984 Off ch=1 n=92 v=64
1984 On ch=1 n=91 v=64
2016 Off ch=1 n=68 v=64
2016 Off ch=1 n=91 v=64
2048 Off ch=1 n=82 v=64
2048 Off ch=1 n=87 v=64
2048 Off ch=1 n=79 v=64
2048 Off ch=1 n=75 v=64
2048 Meta TrkEnd
TrkEnd