MTrk
0 Meta TrkName "Soft Piano 1"
0 Tempo 923076
0 On ch=1 n=45 v=60
64 On ch=1 n=48 v=60
128 On ch=1 n=55 v=60
128 On ch=1 n=52 v=60
256 Off ch=1 n=45 v=60
256 Off ch=1 n=48 v=60
256 Off ch=1 n=55 v=60
256 Off ch=1 n=52 v=60
256 On ch=1 n=50 v=60
320 On ch=1 n=54 v=60
384 On ch=1 n=62 v=60
384 On ch=1 n=57 v=60
512 Off ch=1 n=62 v=60
512 Off ch=1 n=57 v=60
512 Off ch=1 n=54 v=60
512 Off ch=1 n=50 v=60
512 On ch=1 n=43 v=60
576 On ch=1 n=47 v=60
640 On ch=1 n=55 v=60
640 On ch=1 n=50 v=60
768 Off ch=1 n=43 v=60
768 Off ch=1 n=47 v=60
768 Off ch=1 n=55 v=60
768 Off ch=1 n=50 v=60
768 On ch=1 n=40 v=60
832 On ch=1 n=43 v=60
896 On ch=1 n=47 v=60
896 On ch=1 n=52 v=60
1024 Off ch=1 n=47 v=60
1024 Off ch=1 n=43 v=60
1024 Off ch=1 n=40 v=60
1024 Off ch=1 n=52 v=60
1024 On ch=1 n=45 v=60
1088 On ch=1 n=48 v=60
1152 On ch=1 n=55 v=60
1152 On ch=1 n=52 v=60
1280 Off ch=1 n=45 v=60
1280 Off ch=1 n=48 v=60
1280 Off ch=1 n=55 v=60
1280 Off ch=1 n=52 v=60
1280 On ch=1 n=50 v=60
1344 On ch=1 n=54 v=60
1408 On ch=1 n=57 v=60
1408 On ch=1 n=62 v=60
1536 Off ch=1 n=62 v=60
1536 Off ch=1 n=50 v=60
1536 Off ch=1 n=57 v=60
1536 Off ch=1 n=54 v=60
1536 On ch=1 n=43 v=60
1600 On ch=1 n=47 v=60
1664 On ch=1 n=50 v=60
1664 On ch=1 n=55 v=60
1792 Off ch=1 n=47 v=60
1792 Off ch=1 n=55 v=60
1792 Off ch=1 n=43 v=60
1792 Off ch=1 n=50 v=60
1792 On ch=1 n=40 v=60
1856 On ch=1 n=43 v=60
1920 On ch=1 n=52 v=60
1920 On ch=1 n=47 v=60
2048 Off ch=1 n=40 v=60
2048 Off ch=1 n=43 v=60
2048 Off ch=1 n=52 v=60
2048 Off ch=1 n=47 v=60
2048 Meta TrkEnd
TrkEnd